<svg xmlns="http://www.w3.org/2000/svg" width="1024" height="1024" viewBox="0 0 1024 1024" role="img" aria-labelledby="title desc">
  <title id="title">Mock UWB simulator floor 2</title>
  <desc id="desc">Pac-Man floorplan used by the Open RTLS Hub mock UWB simulator for floor 2.</desc>
  <rect x="0" y="0" width="1024" height="1024" fill="#ffffff" />
  <polygon points="956.55,301.57 921.62,248.53 879.29,200.63 830.34,158.79 775.72,123.81 716.51,96.4 653.86,77.08 588.99,66.21 523.16,64.03 457.64,70.57 393.73,85.69 332.65,109.13 275.6,140.39 223.68,178.9 177.93,223.88 139.21,274.47 108.28,329.68 85.75,388.45 72.04,449.61 67.45,512.0 72.04,574.39 85.75,635.55 108.28,694.32 139.21,749.53 177.93,800.12 223.68,845.1 275.6,883.61 332.65,914.87 393.73,938.31 457.64,953.43 523.16,959.97 588.99,957.79 653.86,946.92 716.51,927.6 775.72,900.19 830.34,865.21 879.29,823.37 921.62,775.47 956.55,722.43 766.28,512.0 956.55,301.57" fill="#f7f2e7" stroke="#233b59" stroke-width="8" />
  <line x1="809.45" y1="383.93" x2="708.27" y2="159.81" stroke="#0b5fff" stroke-width="30" stroke-linecap="round" opacity="0.92" />
  <line x1="708.27" y1="159.81" x2="489.04" y2="63.76" stroke="#0b5fff" stroke-width="30" stroke-linecap="round" opacity="0.92" />
  <line x1="489.04" y1="63.76" x2="252.95" y2="191.83" stroke="#0b5fff" stroke-width="30" stroke-linecap="round" opacity="0.92" />
  <line x1="252.95" y1="191.83" x2="118.04" y2="431.96" stroke="#0b5fff" stroke-width="30" stroke-linecap="round" opacity="0.92" />
  <line x1="118.04" y1="431.96" x2="168.63" y2="688.09" stroke="#0b5fff" stroke-width="30" stroke-linecap="round" opacity="0.92" />
  <line x1="168.63" y1="688.09" x2="371.0" y2="880.2" stroke="#0b5fff" stroke-width="30" stroke-linecap="round" opacity="0.92" />
  <line x1="371.0" y1="880.2" x2="640.81" y2="864.19" stroke="#0b5fff" stroke-width="30" stroke-linecap="round" opacity="0.92" />
  <line x1="640.81" y1="864.19" x2="809.45" y2="608.05" stroke="#0b5fff" stroke-width="30" stroke-linecap="round" opacity="0.92" />
  <line x1="505.9" y1="512.0" x2="269.82" y2="512.0" stroke="#0b5fff" stroke-width="30" stroke-linecap="round" opacity="0.92" />
  <line x1="505.9" y1="512.0" x2="505.9" y2="255.86" stroke="#0b5fff" stroke-width="30" stroke-linecap="round" opacity="0.92" />
  <line x1="505.9" y1="512.0" x2="505.9" y2="768.14" stroke="#0b5fff" stroke-width="30" stroke-linecap="round" opacity="0.92" />
  <line x1="505.9" y1="512.0" x2="708.27" y2="512.0" stroke="#0b5fff" stroke-width="30" stroke-linecap="round" opacity="0.92" />
  <line x1="708.27" y1="512.0" x2="809.45" y2="383.93" stroke="#0b5fff" stroke-width="30" stroke-linecap="round" opacity="0.92" />
  <line x1="708.27" y1="512.0" x2="809.45" y2="608.05" stroke="#0b5fff" stroke-width="30" stroke-linecap="round" opacity="0.92" />
  <line x1="708.27" y1="512.0" x2="876.9" y2="512.0" stroke="#0b5fff" stroke-width="30" stroke-linecap="round" opacity="0.92" />
  <circle cx="809.45" cy="383.93" r="8" fill="#111827" />
  <circle cx="708.27" cy="159.81" r="8" fill="#111827" />
  <circle cx="489.04" cy="63.76" r="8" fill="#111827" />
  <circle cx="252.95" cy="191.83" r="8" fill="#111827" />
  <circle cx="118.04" cy="431.96" r="8" fill="#111827" />
  <circle cx="168.63" cy="688.09" r="8" fill="#111827" />
  <circle cx="371.0" cy="880.2" r="8" fill="#111827" />
  <circle cx="640.81" cy="864.19" r="8" fill="#111827" />
  <circle cx="809.45" cy="608.05" r="8" fill="#111827" />
  <circle cx="505.9" cy="512.0" r="8" fill="#111827" />
  <circle cx="269.82" cy="512.0" r="10" fill="#dc2626" />
  <circle cx="505.9" cy="255.86" r="10" fill="#dc2626" />
  <circle cx="505.9" cy="768.14" r="10" fill="#dc2626" />
  <circle cx="708.27" cy="512.0" r="12" fill="#f97316" />
  <circle cx="876.9" cy="512.0" r="10" fill="#dc2626" />
  <text x="33.73" y="32.02" font-family="Menlo, Monaco, monospace" font-size="28" fill="#233b59">Floor 2</text>
</svg>
